<svg width="301" height="69" viewBox="0 0 301 69" fill="none" xmlns="http://www.w3.org/2000/svg">
<path fill-rule="evenodd" clip-rule="evenodd" d="M198.819 21.0836C198.676 21.2267 198.67 21.2104 198.516 21.3316C195.519 23.6595 193.739 23.1863 190.257 23.0985V1.80008C195.667 1.80008 198.885 3.80927 200.511 8.70332C201.85 12.7332 201.9 18.0117 198.819 21.0836ZM188.774 68.9425C187.741 68.9425 186.732 68.8072 185.747 68.5366C184.762 68.266 183.975 67.9238 183.387 67.51L184.531 65.2418C185.103 65.6239 185.79 65.9303 186.593 66.161C187.395 66.3918 188.186 66.5072 188.964 66.5072C190.744 66.5072 191.633 66.0377 191.633 65.0986C191.633 64.6529 191.407 64.3425 190.954 64.1675C190.501 63.9924 189.775 63.8252 188.774 63.6661C187.725 63.5068 186.871 63.3238 186.212 63.117C185.552 62.91 184.98 62.5479 184.496 62.0305C184.011 61.5133 183.769 60.7931 183.769 59.8698C183.769 58.6602 184.273 57.6932 185.282 56.9689C186.291 56.2447 187.653 55.8827 189.369 55.8827C190.243 55.8827 191.117 55.982 191.991 56.1811C192.865 56.38 193.58 56.6467 194.136 56.9809L192.992 59.2491C191.911 58.6124 190.696 58.2941 189.345 58.2941C188.472 58.2941 187.808 58.4254 187.355 58.6879C186.903 58.9507 186.676 59.2968 186.676 59.7265C186.676 60.2041 186.918 60.5423 187.403 60.7413C187.888 60.9402 188.638 61.1273 189.655 61.3024C190.672 61.4615 191.506 61.6446 192.158 61.8515C192.809 62.0584 193.369 62.4086 193.838 62.902C194.307 63.3954 194.541 64.0958 194.541 65.0031C194.541 66.1968 194.025 67.1519 192.992 67.868C191.959 68.5843 190.553 68.9425 188.774 68.9425ZM197.977 59.3389H200.956V68.9426H197.977V59.3389ZM199.479 58.3897C198.939 58.3897 198.486 58.2186 198.12 57.8763C197.755 57.5342 197.572 57.1084 197.572 56.5991C197.572 56.0896 197.755 55.6638 198.12 55.3217C198.486 54.9797 198.939 54.8085 199.479 54.8085C200.019 54.8085 200.472 54.9716 200.837 55.2979C201.203 55.6241 201.385 56.0341 201.385 56.5274C201.385 57.0527 201.206 57.4945 200.849 57.8525C200.492 58.2104 200.035 58.3897 199.479 58.3897ZM212.086 55.8827C213.691 55.8827 214.978 56.3524 215.947 57.2913C216.916 58.2301 217.401 59.6236 217.401 61.4694V68.9426H214.422V61.8515C214.422 60.7373 214.159 59.8975 213.635 59.3326C213.111 58.7679 212.364 58.4851 211.395 58.4851C210.299 58.4851 209.432 58.8155 208.797 59.4759C208.162 60.1362 207.844 61.088 207.844 62.329V68.9426H204.865V56.0259H207.701V57.6733C208.193 57.0845 208.813 56.6385 209.56 56.3362C210.306 56.0341 211.149 55.8827 212.086 55.8827ZM227.148 68.9425C225.829 68.9425 224.646 68.6639 223.597 68.1069C222.549 67.5498 221.73 66.7738 221.142 65.7791C220.555 64.7842 220.261 63.6582 220.261 62.4007C220.261 61.1432 220.555 60.0207 221.142 59.0342C221.73 58.0477 222.545 57.2751 223.585 56.7183C224.626 56.1614 225.814 55.8827 227.148 55.8827C228.403 55.8827 229.504 56.1376 230.449 56.6467C231.394 57.1558 232.105 57.8882 232.582 58.8432L230.294 60.1802C229.929 59.5913 229.472 59.1493 228.924 58.8552C228.376 58.561 227.776 58.4134 227.124 58.4134C226.012 58.4134 225.09 58.7758 224.36 59.4998C223.629 60.2236 223.263 61.1909 223.263 62.4007C223.263 63.6103 223.625 64.5776 224.348 65.3015C225.07 66.0255 225.996 66.3878 227.124 66.3878C227.776 66.3878 228.376 66.2407 228.924 65.9461C229.472 65.6517 229.929 65.2099 230.294 64.6211L232.582 65.9581C232.089 66.9131 231.371 67.6493 230.425 68.1666C229.48 68.6838 228.388 68.9425 227.148 68.9425ZM247.792 62.4723C247.792 62.6792 247.776 62.9736 247.744 63.3557H237.758C237.933 64.2947 238.39 65.0389 239.129 65.588C239.867 66.1371 240.785 66.4117 241.881 66.4117C243.279 66.4117 244.431 65.9501 245.337 65.0269L246.934 66.8654C246.362 67.5498 245.638 68.0674 244.765 68.4173C243.891 68.7671 242.906 68.9425 241.81 68.9425C240.411 68.9425 239.18 68.6639 238.116 68.1069C237.051 67.5498 236.229 66.7735 235.649 65.7791C235.069 64.7845 234.779 63.6582 234.779 62.4007C234.779 61.1592 235.062 60.0406 235.625 59.0462C236.189 58.0517 236.972 57.2749 237.973 56.7183C238.973 56.1616 240.102 55.8827 241.357 55.8827C242.596 55.8827 243.705 56.1575 244.682 56.7064C245.658 57.255 246.422 58.0278 246.969 59.0222C247.517 60.0167 247.792 61.1671 247.792 62.4723ZM241.357 58.2701C240.404 58.2701 239.597 58.5531 238.938 59.1177C238.279 59.6825 237.877 60.4349 237.734 61.3741H244.956C244.828 60.4508 244.439 59.7024 243.788 59.1297C243.137 58.557 242.326 58.2701 241.357 58.2701ZM29.2629 9.56877C15.7525 9.56877 5.84217 0.00554836 5.84217 0.00554836C5.84217 0.00554836 17.319 15.819 29.2629 15.819C41.2067 15.819 52.6876 0.00554836 52.6876 0.00554836C52.6876 0.00554836 42.7733 9.56877 29.2629 9.56877ZM0 9.97618C0 9.97618 13.8063 15.8554 19.1406 25.8763C24.4742 35.8962 23.4342 50.2228 23.4342 50.2228C23.4342 50.2228 28.6484 34.3317 25.9677 25.8763C21.7701 12.6067 0 9.97618 0 9.97618ZM58.5027 9.97618C58.5027 9.97618 44.6963 15.8554 39.3621 25.8763C34.0284 35.8962 35.0684 50.2228 35.0684 50.2228C35.0684 50.2228 29.8549 34.3317 32.5358 25.8763C36.7372 12.6115 58.5068 9.97618 58.5068 9.97618H58.5027ZM257.388 57.7456H260.134V68.5677C260.134 68.7443 260.188 68.7981 260.365 68.7981H262.424C262.601 68.7981 262.655 68.7443 262.655 68.5677V55.6881H257.394V57.7456H257.388ZM277.925 59.9528H280.215V57.7458H285.25L281.003 67.3731C280.848 67.6998 280.472 68.4716 280.446 68.7927H282.96L285.599 62.9693C285.915 62.2136 288.146 57.3867 288.146 57.0599V55.6884H277.925V59.9528ZM291.318 62.7762C293.297 62.7762 296.252 62.5997 297.378 63.4299C298.585 64.3136 298.188 66.8159 295.361 66.8159C293.726 66.8159 292.595 66.3228 291.394 65.5189C291.222 65.8457 291.066 66.103 290.884 66.4621C290.718 66.7992 290.434 67.1047 290.402 67.5012L291.367 68.0639C292.386 68.5837 293.683 68.9105 294.986 68.9533H295.544C296.782 68.9105 297.989 68.5996 298.912 67.93C299.78 67.3033 300.338 66.2746 300.467 65.192V64.2228C300.241 62.4169 298.745 60.7298 295.431 60.7298H293.828C293.828 59.9638 294.058 58.9407 294.058 57.7562H300.236V55.6993H292C292 56.5295 291.421 61.5062 291.313 62.7873L291.318 62.7762ZM271.673 66.9604H270.912C269.646 66.9604 268.472 66.2315 268.472 64.9781C268.472 62.4546 271.957 62.5407 273.277 63.3068C274.885 64.2334 274.429 66.9604 271.673 66.9604ZM273.614 58.4741C274.284 59.8882 273.072 61.0192 271.673 61.0192C270.477 61.0192 268.852 60.837 268.852 59.2671C268.852 56.9265 272.895 56.9636 273.614 58.4741ZM276.102 63.0767C275.85 62.7285 275.121 62.0423 274.649 61.9356V61.7796C275.673 61.5066 276.906 59.3525 275.77 57.4566C273.898 54.3277 266.412 54.8152 266.412 59.1122C266.412 59.7119 266.643 60.4137 266.873 60.7888C266.976 60.9494 267.195 61.2384 267.345 61.383C267.71 61.7313 267.85 61.5974 267.941 61.9356C267.04 62.1759 265.957 63.5687 265.957 64.9029C265.957 67.705 268.45 68.8518 270.943 68.9426H271.587C272.955 68.8943 274.252 68.5406 275.062 67.9837C276.746 66.8322 277.233 64.6512 276.102 63.0767ZM295.398 27.1167C296.461 27.6397 298.169 27.5902 299.25 26.5997C301.513 24.5182 300.092 20.7478 297.072 20.7478C293.579 20.7584 292.031 25.3556 295.398 27.1167ZM293.623 30.2216V50.2645H300.285V30.2216C300.285 30.0402 300.23 29.9848 300.048 29.9848H293.855C293.673 29.9848 293.618 30.0402 293.618 30.2216H293.623ZM132.27 47.5231C132.27 47.8371 131.427 48.4477 131.146 48.5964C130.342 49.0201 130.088 49.1688 129.134 49.1688C126.98 49.1688 125.377 46.4661 125.377 44.2367C125.377 42.5689 125.592 41.4787 126.38 40.2297C128.59 36.7228 132.276 39.7061 132.276 40.1686V47.5289L132.27 47.5231ZM136.215 31.058C134.38 30.1448 132.341 29.875 130.28 30.0017C127.531 30.1715 124.148 31.3221 121.454 32.4125C121.575 32.8362 121.725 33.1996 121.846 33.5908C122.22 33.4477 124.649 32.5281 125.206 32.3247C127.372 31.5425 131.262 30.3813 132.083 33.6182C132.413 34.9168 132.27 36.7333 132.27 38.2862C130.964 37.9832 130.65 37.0366 126.545 37.0366C123.911 37.0366 121.245 38.4514 119.785 40.5102C118.016 43.0089 118.275 45.3155 119.416 47.0442C121.041 49.4991 124.881 50.8373 128.121 50.5397C129.531 50.4129 130.893 49.9786 132.27 49.2518V50.2698H138.931V34.3776C138.931 32.8693 137.284 31.592 136.215 31.0636V31.058ZM228.033 47.3634C228.033 48.1618 226.309 49.1637 224.897 49.1637C222.848 49.1637 221.211 46.5927 221.211 44.4681C221.211 41.919 222.451 38.4405 224.738 38.4405C226.226 38.4405 228.027 39.6292 228.027 40.317V47.3634H228.033ZM228.551 30.0671C224.766 29.6598 220.468 30.8542 217.217 32.412L217.685 33.5904C221.096 32.2416 228.11 28.7296 228.11 35.1539L228.033 38.203C225.345 36.6899 221.52 36.6786 218.672 37.9168C216.76 38.7486 215.112 40.1854 214.677 42.0838C214.104 44.5778 214.771 47.0391 216.77 48.6684C219.454 50.8532 225.107 51.1947 228.033 49.2409V50.2589H234.771V34.5206C234.771 31.7187 230.893 30.3152 228.551 30.0616V30.0671ZM246.921 31.0803C246.921 30.7224 247.064 29.9851 246.685 29.9851H240.337C240.155 29.9851 240.1 30.0395 240.1 30.2216V50.0278C240.1 50.2092 240.155 50.2645 240.337 50.2645H246.921V35.3133C246.921 31.0917 253.561 29.4566 254.321 33.7888C254.514 35.8857 254.503 38.8801 254.447 41.9026C254.393 45.0346 254.447 48.1229 254.447 50.2645H261.109V35.3904C261.109 33.9758 260.553 32.809 259.698 31.9007C258.271 30.3866 256.354 29.7314 254.134 29.5995C251.83 29.462 248.849 29.5883 246.927 31.0859L246.921 31.0803ZM171.308 45.5909C170.828 46.978 169.985 48.0351 168.873 48.6189C164.509 50.8866 162.917 43.5427 162.917 40.3173C162.917 37.8235 162.939 36.0459 163.909 33.7946C165.622 29.8307 169.313 30.9096 170.906 33.1116C171.429 33.8328 171.743 34.6695 171.931 35.572C172.432 37.9779 172.405 42.3978 171.308 45.5909ZM178.036 29.9851H172.393C172.036 29.9851 172.157 30.6121 172.157 31.0031V32.2528C171.181 30.9925 168.547 29.0599 164.096 30.299C159.654 31.5316 155.544 34.8955 155.544 39.8497C155.544 44.8038 159.49 49.0865 164.068 50.0775C168.977 51.1396 170.807 49.3287 172.151 48.0685V61.6928H178.267V30.2218C178.267 30.0398 178.212 29.9851 178.03 29.9851H178.036ZM144.42 0H151.158V50.264H144.42V0ZM266.432 50.2645H273.17V42.2766L280.537 50.2645H289.629L278.498 37.7354L286.725 29.9851C285 29.9851 283.27 29.9956 281.551 29.9851C280.868 29.9793 280.746 30.2054 279.97 30.9869L273.17 37.268V0.000504397H266.432V50.2645ZM80.8502 50.2641H86.1011L96.8419 32.1268C97.2655 32.8664 105.309 49.317 105.836 50.2641H115.863C102.641 23.5109 115.748 49.8984 102.324 22.8692C115.357 0.867603 102.837 22.0124 115.863 0.00554836H110.612L99.9354 18.0359C91.9291 1.83586 99.4475 17.1014 91.0244 0.00554836H80.9138C93.8664 26.1942 81.5097 1.07798 94.4488 27.3008C93.8768 28.2916 81.4021 49.1718 80.8502 50.2641ZM198.186 46.4661C197.464 47.1156 196.582 47.6165 195.502 47.9857C194.18 48.4255 192.477 48.7011 190.73 48.7011H190.262V24.975C192.725 24.975 194.472 24.8155 196.505 26.0215C196.792 26.1923 197.04 26.3572 197.288 26.5664C199.7 28.6307 200.792 31.7905 201.134 34.9338C201.535 38.6001 201.117 43.8405 198.186 46.4661ZM208.065 28.5592C207.045 26.8745 205.563 25.2507 203.789 24.3758C203.04 24.0065 202.66 23.8139 201.778 23.5659C203.425 23.4285 205.905 21.4307 206.962 20.1372C208.495 18.2596 209.304 16.217 209.304 13.2339C209.304 10.7565 208.153 7.26102 206.781 5.41685C203.497 0.979846 197.667 0.00554836 192.456 0.00554836H183.364V50.1103C183.364 50.2917 183.419 50.3413 183.601 50.3413H198.957C203.69 50.3413 207.023 48.4752 209.144 44.2364C211.53 39.4863 210.748 33.0126 208.065 28.5648V28.5592Z" fill="#095659"/>
</svg>
